<svg xmlns="http://www.w3.org/2000/svg" xmlns:xlink="http://www.w3.org/1999/xlink" width="870.5" height="977.5" viewBox="0 0 870.5 977.5"><defs><style>.a{fill:#f5f9e7;}.b{fill:#3bab59;stroke:#fff;}.c,.j{fill:#bbd54b;}.c{font-size:25px;font-family:HelveticaNeue-Bold, Helvetica Neue;font-weight:700;}.d{font-size:20px;}.d,.j{font-family:HelveticaNeue, Helvetica Neue;}.e{fill:#bcd54d;}.f{fill:#4dd5c5;}.g{fill:#f086dc;}.h{fill:#f8ef7b;}.i{fill:#ff9898;}.j{font-size:15px;}.k,.l,.n{fill:none;}.k{stroke:#707070;}.l{stroke:#000;stroke-linecap:round;}.m{stroke:none;}.o{filter:url(#m);}.p{filter:url(#k);}.q{filter:url(#i);}.r{filter:url(#g);}.s{filter:url(#e);}.t{filter:url(#c);}.u{filter:url(#a);}</style><filter id="a" x="0" y="0" width="120" height="120" filterUnits="userSpaceOnUse"><feOffset dy="3" input="SourceAlpha"/><feGaussianBlur stdDeviation="7.5" result="b"/><feFlood flood-opacity="0.161"/><feComposite operator="in" in2="b"/><feComposite in="SourceGraphic"/></filter><filter id="c" x="377" y="313" width="120" height="120" filterUnits="userSpaceOnUse"><feOffset dy="3" input="SourceAlpha"/><feGaussianBlur stdDeviation="7.5" result="d"/><feFlood flood-opacity="0.161"/><feComposite operator="in" in2="d"/><feComposite in="SourceGraphic"/></filter><filter id="e" x="0" y="747" width="120" height="120" filterUnits="userSpaceOnUse"><feOffset dy="3" input="SourceAlpha"/><feGaussianBlur stdDeviation="7.5" result="f"/><feFlood flood-opacity="0.161"/><feComposite operator="in" in2="f"/><feComposite in="SourceGraphic"/></filter><filter id="g" x="338" y="0" width="120" height="120" filterUnits="userSpaceOnUse"><feOffset dy="3" input="SourceAlpha"/><feGaussianBlur stdDeviation="7.5" result="h"/><feFlood flood-opacity="0.161"/><feComposite operator="in" in2="h"/><feComposite in="SourceGraphic"/></filter><filter id="i" x="338" y="747" width="120" height="120" filterUnits="userSpaceOnUse"><feOffset dy="3" input="SourceAlpha"/><feGaussianBlur stdDeviation="7.5" result="j"/><feFlood flood-opacity="0.161"/><feComposite operator="in" in2="j"/><feComposite in="SourceGraphic"/></filter><filter id="k" x="675" y="0" width="120" height="120" filterUnits="userSpaceOnUse"><feOffset dy="3" input="SourceAlpha"/><feGaussianBlur stdDeviation="7.5" result="l"/><feFlood flood-opacity="0.161"/><feComposite operator="in" in2="l"/><feComposite in="SourceGraphic"/></filter><filter id="m" x="675" y="747" width="120" height="120" filterUnits="userSpaceOnUse"><feOffset dy="3" input="SourceAlpha"/><feGaussianBlur stdDeviation="7.5" result="n"/><feFlood flood-opacity="0.161"/><feComposite operator="in" in2="n"/><feComposite in="SourceGraphic"/></filter></defs><g transform="translate(-505.5 -4527.5)"><rect class="a" width="868" height="174" transform="translate(508 4897)"/><rect class="a" width="193" height="174" transform="translate(508 4584)"/><rect class="a" width="193" height="174" transform="translate(508 5331)"/><rect class="a" width="193" height="174" transform="translate(846 4584)"/><rect class="a" width="193" height="174" transform="translate(846 5331)"/><rect class="a" width="193" height="174" transform="translate(1183 4584)"/><rect class="a" width="193" height="174" transform="translate(1183 5331)"/><g transform="translate(-3784 1826)"><g class="u" transform="matrix(1, 0, 0, 1, 4289.5, 2701.5)"><g class="b" transform="translate(22.5 19.5)"><circle class="m" cx="37.5" cy="37.5" r="37.5"/><circle class="n" cx="37.5" cy="37.5" r="37"/></g></g><text class="c" transform="translate(4341 2741)"><tspan x="0" y="24">1</tspan></text></g><g transform="translate(-3407 2139)"><g class="t" transform="matrix(1, 0, 0, 1, 3912.5, 2388.5)"><g class="b" transform="translate(399.5 332.5)"><circle class="m" cx="37.5" cy="37.5" r="37.5"/><circle class="n" cx="37.5" cy="37.5" r="37"/></g></g><text class="c" transform="translate(4341 2741)"><tspan x="0" y="24">4</tspan></text></g><g transform="translate(-3784 2573)"><g class="s" transform="matrix(1, 0, 0, 1, 4289.5, 1954.5)"><g class="b" transform="translate(22.5 766.5)"><circle class="m" cx="37.5" cy="37.5" r="37.5"/><circle class="n" cx="37.5" cy="37.5" r="37"/></g></g><text class="c" transform="translate(4341 2741)"><tspan x="0" y="24">5</tspan></text></g><g transform="translate(-3446 1826)"><g class="r" transform="matrix(1, 0, 0, 1, 3951.5, 2701.5)"><g class="b" transform="translate(360.5 19.5)"><circle class="m" cx="37.5" cy="37.5" r="37.5"/><circle class="n" cx="37.5" cy="37.5" r="37"/></g></g><text class="c" transform="translate(4341 2741)"><tspan x="0" y="24">2</tspan></text></g><g transform="translate(-3446 2573)"><g class="q" transform="matrix(1, 0, 0, 1, 3951.5, 1954.5)"><g class="b" transform="translate(360.5 766.5)"><circle class="m" cx="37.5" cy="37.5" r="37.5"/><circle class="n" cx="37.5" cy="37.5" r="37"/></g></g><text class="c" transform="translate(4341 2741)"><tspan x="0" y="24">6</tspan></text></g><g transform="translate(-3109 1826)"><g class="p" transform="matrix(1, 0, 0, 1, 3614.5, 2701.5)"><g class="b" transform="translate(697.5 19.5)"><circle class="m" cx="37.5" cy="37.5" r="37.5"/><circle class="n" cx="37.5" cy="37.5" r="37"/></g></g><text class="c" transform="translate(4341 2741)"><tspan x="0" y="24">3</tspan></text></g><g transform="translate(-3109 2573)"><g class="o" transform="matrix(1, 0, 0, 1, 3614.5, 1954.5)"><g class="b" transform="translate(697.5 766.5)"><circle class="m" cx="37.5" cy="37.5" r="37.5"/><circle class="n" cx="37.5" cy="37.5" r="37"/></g></g><text class="c" transform="translate(4341 2741)"><tspan x="0" y="24">7</tspan></text></g><text class="d" transform="translate(541 4652)"><tspan x="0" y="19">Gather </tspan><tspan x="0" y="44">requirements</tspan></text><rect class="e" width="141" height="84" transform="translate(558 5050)"/><rect class="f" width="141" height="84" transform="translate(712 5050)"/><rect class="g" width="142" height="84" transform="translate(864 5050)"/><rect class="h" width="142" height="84" transform="translate(1018 5050)"/><rect class="i" width="142" height="84" transform="translate(1172 5050)"/><text class="d" transform="translate(589 5080)"><tspan x="20.87" y="19">Plan</tspan></text><text class="d" transform="translate(743 5080)"><tspan x="9.57" y="19">Design</tspan></text><text class="d" transform="translate(895 5080)"><tspan x="3.83" y="19">Develop</tspan></text><text class="d" transform="translate(1049 5080)"><tspan x="22.35" y="19">Test</tspan></text><text class="d" transform="translate(1203 5080)"><tspan x="5.31" y="19">Validate</tspan></text><text class="d" transform="translate(683 4965)"><tspan x="159.37" y="19">Agile system life-cycle</tspan></text><text class="d" transform="translate(541 5399)"><tspan x="0" y="19">Release</tspan></text><text class="d" transform="translate(879 4652)"><tspan x="0" y="19">Documentations </tspan><tspan x="0" y="44">and pricing</tspan></text><text class="d" transform="translate(879 5399)"><tspan x="0" y="19">Product </tspan><tspan x="0" y="44">marketing</tspan></text><text class="d" transform="translate(1216 4652)"><tspan x="0" y="19">Project roadmap </tspan><tspan x="0" y="44">setup</tspan></text><text class="d" transform="translate(1216 5399)"><tspan x="0" y="19">Feedback &amp; </tspan><tspan x="0" y="44">iterations</tspan></text><text class="j" transform="translate(541 4717)"><tspan x="0" y="14">STEP 1</tspan></text><text class="j" transform="translate(902 5007)"><tspan x="15.138" y="14">STEP 4</tspan></text><text class="j" transform="translate(541 5464)"><tspan x="0" y="14">STEP 5</tspan></text><text class="j" transform="translate(879 4717)"><tspan x="0" y="14">STEP 2</tspan></text><text class="j" transform="translate(879 5464)"><tspan x="0" y="14">STEP 6</tspan></text><text class="j" transform="translate(1216 4717)"><tspan x="0" y="14">STEP 3</tspan></text><text class="j" transform="translate(1216 5464)"><tspan x="0" y="14">STEP 3</tspan></text><line class="k" x2="141" transform="translate(701.5 4725.5)"/><line class="k" x2="142" transform="translate(1039.5 4725.5)"/><line class="k" y2="53" transform="translate(1279.5 4758.5)"/><line class="k" y1="53" transform="translate(565.5 5237.5)"/><line class="k" y2="53" transform="translate(1249.5 5135.5)"/><line class="k" y2="53" transform="translate(621.5 5135.5)"/><line class="k" x1="338" transform="translate(941.5 4811.5)"/><line class="k" x2="377" y2="1" transform="translate(565.5 5237.5)"/><line class="k" x1="628" transform="translate(621.5 5188.5)"/><line class="k" y2="47" transform="translate(941.5 4811.5)"/><line class="k" y2="49" transform="translate(941.5 5188.5)"/><path class="l" d="M9,13.5l3,3,3-3" transform="translate(826 4737.5) rotate(-90)"/><path class="l" d="M9,13.5l3,3,3-3" transform="translate(1165 4737.5) rotate(-90)"/><path class="l" d="M9,13.5l3,3,3-3" transform="translate(930 4841.5)"/><path class="l" d="M9,13.5l3,3,3-3" transform="translate(553.5 5274.5)"/><line class="k" x2="141" transform="translate(701.5 5472.5)"/><path class="l" d="M9,13.5l3,3,3-3" transform="translate(826 5484.5) rotate(-90)"/><line class="k" x2="141" transform="translate(1038.5 5472.5)"/><path class="l" d="M9,13.5l3,3,3-3" transform="translate(1163 5484.5) rotate(-90)"/></g></svg>