<svg width="32" height="32" viewBox="0 0 32 32" fill="none" xmlns="http://www.w3.org/2000/svg">
<rect x="0.5" y="0.5" width="31" height="31" rx="15.5" stroke="black"/>
<path d="M23.0245 11.378C22.4918 11.6117 21.9241 11.7666 21.3322 11.8418C21.9411 11.4783 22.4058 10.907 22.6243 10.2185C22.0566 10.5569 21.4298 10.796 20.7619 10.9294C20.2228 10.3555 19.4546 10 18.6165 10C16.9905 10 15.6814 11.3198 15.6814 12.9378C15.6814 13.1706 15.7011 13.3944 15.7495 13.6075C13.3077 13.4884 11.1471 12.3182 9.69571 10.5354C9.44231 10.9751 9.29368 11.4783 9.29368 12.02C9.29368 13.0372 9.81748 13.9388 10.5983 14.4608C10.1264 14.4519 9.66348 14.3149 9.27129 14.0991C9.27129 14.1081 9.27129 14.1197 9.27129 14.1313C9.27129 15.5586 10.2894 16.7441 11.6244 17.0172C11.3853 17.0826 11.1248 17.1139 10.8543 17.1139C10.6663 17.1139 10.4765 17.1032 10.2983 17.0638C10.6789 18.2269 11.7587 19.082 13.0427 19.1097C12.0434 19.8914 10.7747 20.3624 9.40113 20.3624C9.16026 20.3624 8.92925 20.3516 8.69824 20.3221C9.99925 21.1611 11.5411 21.6401 13.2039 21.6401C18.6084 21.6401 21.5632 17.1631 21.5632 13.2825C21.5632 13.1527 21.5588 13.0273 21.5525 12.9029C22.1354 12.4892 22.6252 11.9726 23.0245 11.378Z" fill="black"/>
</svg>
