<svg width="32" height="32" viewBox="0 0 32 32" fill="none" xmlns="http://www.w3.org/2000/svg">
<rect x="0.5" y="0.5" width="31" height="31" rx="15.5" stroke="black"/>
<path d="M21.8354 21.6401V21.6396H21.8383V17.3706C21.8383 15.2822 21.3887 13.6734 18.9472 13.6734C17.7735 13.6734 16.9859 14.3175 16.6643 14.9282H16.6304V13.8684H14.3154V21.6396H16.7259V17.7916C16.7259 16.7784 16.918 15.7987 18.1727 15.7987C19.4089 15.7987 19.4274 16.955 19.4274 17.8566V21.6401H21.8354Z" fill="black"/>
<path d="M10.3906 13.8687H12.804V21.64H10.3906V13.8687Z" fill="black"/>
<path d="M11.596 10C10.8244 10 10.1982 10.6261 10.1982 11.3978C10.1982 12.1694 10.8244 12.8087 11.596 12.8087C12.3677 12.8087 12.9938 12.1694 12.9938 11.3978C12.9933 10.6261 12.3672 10 11.596 10V10Z" fill="black"/>
</svg>
